<svg xmlns="http://www.w3.org/2000/svg" xmlns:xlink="http://www.w3.org/1999/xlink" width="1080" zoomAndPan="magnify" viewBox="0 0 810 1012.49997" height="1350" preserveAspectRatio="xMidYMid meet" version="1.0"><defs><g/><clipPath id="485c760bd0"><path d="M 0.199219 0 L 809.800781 0 L 809.800781 1012 L 0.199219 1012 Z M 0.199219 0 " clip-rule="nonzero"/></clipPath><clipPath id="bb362e7920"><path d="M 0.585938 7 L 140 7 L 140 161 L 0.585938 161 Z M 0.585938 7 " clip-rule="nonzero"/></clipPath><clipPath id="5c6ae6e5c2"><rect x="0" width="770" y="0" height="216"/></clipPath></defs><g clip-path="url(#485c760bd0)"><path fill="#ffffff" d="M 0.199219 0 L 809.800781 0 L 809.800781 1012 L 0.199219 1012 Z M 0.199219 0 " fill-opacity="1" fill-rule="nonzero"/><path fill="#ffffff" d="M 0.199219 0 L 809.800781 0 L 809.800781 1012 L 0.199219 1012 Z M 0.199219 0 " fill-opacity="1" fill-rule="nonzero"/></g><g transform="matrix(1, 0, 0, 1, 26, 398)"><g clip-path="url(#5c6ae6e5c2)"><g fill="#ff66c4" fill-opacity="0.302"><g transform="translate(19.178016, 173.719012)"><g><path d="M 136.53125 -118.890625 C 136.53125 -113.304688 135.238281 -108.253906 132.65625 -103.734375 C 130.070312 -99.222656 126.273438 -95.675781 121.265625 -93.09375 C 117.679688 -95.101562 113.84375 -96.679688 109.75 -97.828125 C 105.664062 -98.972656 101.476562 -99.6875 97.1875 -99.96875 C 96.320312 -99.96875 95.78125 -99.570312 95.5625 -98.78125 C 95.351562 -98 95.675781 -97.46875 96.53125 -97.1875 C 106.132812 -95.03125 113.984375 -91.15625 120.078125 -85.5625 C 126.171875 -79.976562 130.503906 -73.492188 133.078125 -66.109375 C 135.660156 -58.734375 136.554688 -51.207031 135.765625 -43.53125 C 134.984375 -35.863281 132.40625 -28.695312 128.03125 -22.03125 C 123.65625 -15.375 117.523438 -10 109.640625 -5.90625 C 101.765625 -1.820312 92.164062 0.21875 80.84375 0.21875 L 33.75 0.21875 C 27.59375 0.21875 21.929688 -1.570312 16.765625 -5.15625 C 11.609375 -8.738281 7.453125 -13.21875 4.296875 -18.59375 C 1.140625 -23.96875 -0.4375 -29.164062 -0.4375 -34.1875 C -0.4375 -40.0625 0.632812 -45.179688 2.78125 -49.546875 C 4.9375 -53.921875 8.378906 -57.832031 13.109375 -61.28125 C 17.265625 -58.550781 21.992188 -56.46875 27.296875 -55.03125 C 32.609375 -53.601562 37.769531 -52.890625 42.78125 -52.890625 C 43.644531 -52.890625 44.144531 -53.28125 44.28125 -54.0625 C 44.425781 -54.851562 44.070312 -55.394531 43.21875 -55.6875 C 40.207031 -55.96875 37.195312 -56.609375 34.1875 -57.609375 C 31.175781 -58.617188 28.238281 -59.84375 25.375 -61.28125 C 18.34375 -65 12.75 -69.796875 8.59375 -75.671875 C 4.4375 -81.554688 1.75 -87.972656 0.53125 -94.921875 C -0.683594 -101.867188 -0.472656 -108.78125 1.171875 -115.65625 C 2.828125 -122.539062 5.910156 -128.8125 10.421875 -134.46875 C 14.941406 -140.132812 20.925781 -144.648438 28.375 -148.015625 C 35.832031 -151.390625 44.722656 -153.003906 55.046875 -152.859375 L 101.6875 -152.859375 C 108.144531 -152.859375 113.988281 -151.351562 119.21875 -148.34375 C 124.445312 -145.332031 128.640625 -141.25 131.796875 -136.09375 C 134.953125 -130.9375 136.53125 -125.203125 136.53125 -118.890625 Z M 136.53125 -118.890625 "/></g></g></g><g fill="#ff66c4" fill-opacity="0.302"><g transform="translate(162.138938, 173.719012)"><g><path d="M 101.046875 -152.65625 C 107.492188 -152.65625 113.332031 -151.078125 118.5625 -147.921875 C 123.800781 -144.765625 127.960938 -140.570312 131.046875 -135.34375 C 134.128906 -130.113281 135.671875 -124.34375 135.671875 -118.03125 C 135.671875 -111.875 134.164062 -106.25 131.15625 -101.15625 C 128.144531 -96.070312 124.09375 -91.953125 119 -88.796875 C 113.914062 -85.640625 108.144531 -84.0625 101.6875 -84.0625 L 101.90625 -33.96875 C 101.90625 -27.664062 100.328125 -21.859375 97.171875 -16.546875 C 94.023438 -11.242188 89.832031 -7.015625 84.59375 -3.859375 C 79.363281 -0.710938 73.597656 0.859375 67.296875 0.859375 C 61.128906 0.859375 55.460938 -0.710938 50.296875 -3.859375 C 45.140625 -7.015625 41.019531 -11.242188 37.9375 -16.546875 C 34.863281 -21.859375 33.328125 -27.664062 33.328125 -33.96875 L 33.328125 -84.0625 C 27.015625 -84.0625 21.28125 -85.640625 16.125 -88.796875 C 10.96875 -91.953125 6.882812 -96.070312 3.875 -101.15625 C 0.863281 -106.25 -0.640625 -111.875 -0.640625 -118.03125 C -0.640625 -124.34375 0.863281 -130.113281 3.875 -135.34375 C 6.882812 -140.570312 10.96875 -144.765625 16.125 -147.921875 C 21.28125 -151.078125 27.015625 -152.65625 33.328125 -152.65625 Z M 101.046875 -152.65625 "/></g></g></g><g fill="#ff66c4" fill-opacity="0.302"><g transform="translate(275.216013, 173.719012)"><g><path d="M 18.703125 -2.796875 C 13.109375 -5.515625 8.628906 -9.347656 5.265625 -14.296875 C 1.898438 -19.242188 -0.03125 -24.691406 -0.53125 -30.640625 C -1.039062 -36.585938 -0.00390625 -42.285156 2.578125 -47.734375 L 43.21875 -133.9375 C 46.226562 -140.394531 50.523438 -145.269531 56.109375 -148.5625 C 61.703125 -151.863281 67.6875 -153.546875 74.0625 -153.609375 C 80.445312 -153.679688 86.429688 -152.101562 92.015625 -148.875 C 97.609375 -145.65625 101.984375 -140.75 105.140625 -134.15625 L 146.203125 -47.734375 C 148.921875 -42.285156 149.992188 -36.585938 149.421875 -30.640625 C 148.847656 -24.691406 146.910156 -19.242188 143.609375 -14.296875 C 140.316406 -9.347656 135.804688 -5.515625 130.078125 -2.796875 C 124.484375 -0.210938 118.675781 0.820312 112.65625 0.3125 C 106.632812 -0.183594 101.1875 -2.117188 96.3125 -5.484375 C 91.445312 -8.847656 87.648438 -13.328125 84.921875 -18.921875 L 66.4375 -57.828125 C 66.289062 -58.265625 65.929688 -58.410156 65.359375 -58.265625 C 64.785156 -58.117188 64.570312 -57.6875 64.71875 -56.96875 L 70.515625 -32.890625 L 64.0625 -18.921875 C 61.34375 -13.328125 57.507812 -8.847656 52.5625 -5.484375 C 47.625 -2.117188 42.179688 -0.183594 36.234375 0.3125 C 30.285156 0.820312 24.441406 -0.210938 18.703125 -2.796875 Z M 18.703125 -2.796875 "/></g></g></g><g fill="#ff66c4" fill-opacity="0.302"><g transform="translate(402.911591, 173.719012)"><g><path d="M 88.796875 -143.1875 C 93.234375 -147.769531 98.28125 -150.8125 103.9375 -152.3125 C 109.601562 -153.820312 115.300781 -153.820312 121.03125 -152.3125 C 126.769531 -150.8125 131.789062 -147.769531 136.09375 -143.1875 C 140.394531 -138.882812 143.257812 -133.796875 144.6875 -127.921875 C 146.125 -122.046875 146.125 -116.203125 144.6875 -110.390625 C 143.257812 -104.585938 140.394531 -99.394531 136.09375 -94.8125 L 106.640625 -64.71875 L 106.640625 -34.609375 C 106.640625 -28.304688 105.097656 -22.570312 102.015625 -17.40625 C 98.929688 -12.25 94.773438 -8.128906 89.546875 -5.046875 C 84.316406 -1.972656 78.546875 -0.4375 72.234375 -0.4375 C 66.078125 -0.4375 60.378906 -1.972656 55.140625 -5.046875 C 49.910156 -8.128906 45.753906 -12.25 42.671875 -17.40625 C 39.597656 -22.570312 38.0625 -28.304688 38.0625 -34.609375 L 38.0625 -64.71875 L 8.59375 -94.8125 C 4.300781 -99.394531 1.4375 -104.585938 0 -110.390625 C -1.4375 -116.203125 -1.4375 -122.046875 0 -127.921875 C 1.4375 -133.796875 4.300781 -138.882812 8.59375 -143.1875 C 12.894531 -147.769531 17.875 -150.8125 23.53125 -152.3125 C 29.195312 -153.820312 34.828125 -153.820312 40.421875 -152.3125 C 46.015625 -150.8125 50.957031 -147.769531 55.25 -143.1875 L 72.234375 -125.984375 Z M 88.796875 -143.1875 "/></g></g></g><g fill="#ff66c4" fill-opacity="0.302"><g transform="translate(553.181775, 173.719012)"><g><path d="M 3.21875 -132.4375 C 3.21875 -138.03125 5.257812 -142.832031 9.34375 -146.84375 C 13.4375 -150.851562 18.421875 -152.859375 24.296875 -152.859375 C 29.742188 -152.859375 34.472656 -150.851562 38.484375 -146.84375 C 42.492188 -142.832031 44.5 -138.03125 44.5 -132.4375 L 44.5 -106.859375 C 44.5 -101.117188 42.492188 -96.242188 38.484375 -92.234375 C 34.472656 -88.222656 29.742188 -86.21875 24.296875 -86.21875 C 18.421875 -86.21875 13.4375 -88.222656 9.34375 -92.234375 C 5.257812 -96.242188 3.21875 -101.117188 3.21875 -106.859375 Z M 3.21875 -132.4375 "/></g></g></g><g fill="#ff66c4" fill-opacity="0.302"><g transform="translate(611.011123, 173.719012)"><g><path d="M 77.40625 -154.796875 C 88.15625 -154.796875 98.296875 -152.753906 107.828125 -148.671875 C 117.359375 -144.585938 125.707031 -138.960938 132.875 -131.796875 C 140.039062 -124.628906 145.664062 -116.316406 149.75 -106.859375 C 153.832031 -97.398438 155.875 -87.296875 155.875 -76.546875 C 155.875 -65.796875 153.832031 -55.6875 149.75 -46.21875 C 145.664062 -36.757812 140.039062 -28.484375 132.875 -21.390625 C 125.707031 -14.296875 117.359375 -8.738281 107.828125 -4.71875 C 98.296875 -0.707031 88.15625 1.296875 77.40625 1.296875 C 66.789062 1.296875 56.753906 -0.707031 47.296875 -4.71875 C 37.835938 -8.738281 29.523438 -14.296875 22.359375 -21.390625 C 15.191406 -28.484375 9.566406 -36.757812 5.484375 -46.21875 C 1.398438 -55.6875 -0.640625 -65.796875 -0.640625 -76.546875 C -0.640625 -87.296875 1.398438 -97.398438 5.484375 -106.859375 C 9.566406 -116.316406 15.191406 -124.628906 22.359375 -131.796875 C 29.523438 -138.960938 37.835938 -144.585938 47.296875 -148.671875 C 56.753906 -152.753906 66.789062 -154.796875 77.40625 -154.796875 Z M 77.40625 -84.703125 C 75.539062 -84.703125 73.78125 -83.945312 72.125 -82.4375 C 70.476562 -80.9375 69.65625 -78.972656 69.65625 -76.546875 C 69.65625 -74.242188 70.476562 -72.269531 72.125 -70.625 C 73.78125 -68.976562 75.539062 -68.15625 77.40625 -68.15625 C 79.695312 -68.15625 81.664062 -68.976562 83.3125 -70.625 C 84.957031 -72.269531 85.78125 -74.242188 85.78125 -76.546875 C 85.78125 -78.972656 84.957031 -80.9375 83.3125 -82.4375 C 81.664062 -83.945312 79.695312 -84.703125 77.40625 -84.703125 Z M 77.40625 -84.703125 "/></g></g></g><g fill="#ff66c4" fill-opacity="0.502"><g transform="translate(10.706702, 167.100513)"><g><path d="M 136.53125 -118.890625 C 136.53125 -113.304688 135.238281 -108.253906 132.65625 -103.734375 C 130.070312 -99.222656 126.273438 -95.675781 121.265625 -93.09375 C 117.679688 -95.101562 113.84375 -96.679688 109.75 -97.828125 C 105.664062 -98.972656 101.476562 -99.6875 97.1875 -99.96875 C 96.320312 -99.96875 95.78125 -99.570312 95.5625 -98.78125 C 95.351562 -98 95.675781 -97.46875 96.53125 -97.1875 C 106.132812 -95.03125 113.984375 -91.15625 120.078125 -85.5625 C 126.171875 -79.976562 130.503906 -73.492188 133.078125 -66.109375 C 135.660156 -58.734375 136.554688 -51.207031 135.765625 -43.53125 C 134.984375 -35.863281 132.40625 -28.695312 128.03125 -22.03125 C 123.65625 -15.375 117.523438 -10 109.640625 -5.90625 C 101.765625 -1.820312 92.164062 0.21875 80.84375 0.21875 L 33.75 0.21875 C 27.59375 0.21875 21.929688 -1.570312 16.765625 -5.15625 C 11.609375 -8.738281 7.453125 -13.21875 4.296875 -18.59375 C 1.140625 -23.96875 -0.4375 -29.164062 -0.4375 -34.1875 C -0.4375 -40.0625 0.632812 -45.179688 2.78125 -49.546875 C 4.9375 -53.921875 8.378906 -57.832031 13.109375 -61.28125 C 17.265625 -58.550781 21.992188 -56.46875 27.296875 -55.03125 C 32.609375 -53.601562 37.769531 -52.890625 42.78125 -52.890625 C 43.644531 -52.890625 44.144531 -53.28125 44.28125 -54.0625 C 44.425781 -54.851562 44.070312 -55.394531 43.21875 -55.6875 C 40.207031 -55.96875 37.195312 -56.609375 34.1875 -57.609375 C 31.175781 -58.617188 28.238281 -59.84375 25.375 -61.28125 C 18.34375 -65 12.75 -69.796875 8.59375 -75.671875 C 4.4375 -81.554688 1.75 -87.972656 0.53125 -94.921875 C -0.683594 -101.867188 -0.472656 -108.78125 1.171875 -115.65625 C 2.828125 -122.539062 5.910156 -128.8125 10.421875 -134.46875 C 14.941406 -140.132812 20.925781 -144.648438 28.375 -148.015625 C 35.832031 -151.390625 44.722656 -153.003906 55.046875 -152.859375 L 101.6875 -152.859375 C 108.144531 -152.859375 113.988281 -151.351562 119.21875 -148.34375 C 124.445312 -145.332031 128.640625 -141.25 131.796875 -136.09375 C 134.953125 -130.9375 136.53125 -125.203125 136.53125 -118.890625 Z M 136.53125 -118.890625 "/></g></g></g><g fill="#ff66c4" fill-opacity="0.502"><g transform="translate(153.667624, 167.100513)"><g><path d="M 101.046875 -152.65625 C 107.492188 -152.65625 113.332031 -151.078125 118.5625 -147.921875 C 123.800781 -144.765625 127.960938 -140.570312 131.046875 -135.34375 C 134.128906 -130.113281 135.671875 -124.34375 135.671875 -118.03125 C 135.671875 -111.875 134.164062 -106.25 131.15625 -101.15625 C 128.144531 -96.070312 124.09375 -91.953125 119 -88.796875 C 113.914062 -85.640625 108.144531 -84.0625 101.6875 -84.0625 L 101.90625 -33.96875 C 101.90625 -27.664062 100.328125 -21.859375 97.171875 -16.546875 C 94.023438 -11.242188 89.832031 -7.015625 84.59375 -3.859375 C 79.363281 -0.710938 73.597656 0.859375 67.296875 0.859375 C 61.128906 0.859375 55.460938 -0.710938 50.296875 -3.859375 C 45.140625 -7.015625 41.019531 -11.242188 37.9375 -16.546875 C 34.863281 -21.859375 33.328125 -27.664062 33.328125 -33.96875 L 33.328125 -84.0625 C 27.015625 -84.0625 21.28125 -85.640625 16.125 -88.796875 C 10.96875 -91.953125 6.882812 -96.070312 3.875 -101.15625 C 0.863281 -106.25 -0.640625 -111.875 -0.640625 -118.03125 C -0.640625 -124.34375 0.863281 -130.113281 3.875 -135.34375 C 6.882812 -140.570312 10.96875 -144.765625 16.125 -147.921875 C 21.28125 -151.078125 27.015625 -152.65625 33.328125 -152.65625 Z M 101.046875 -152.65625 "/></g></g></g><g fill="#ff66c4" fill-opacity="0.502"><g transform="translate(266.744699, 167.100513)"><g><path d="M 18.703125 -2.796875 C 13.109375 -5.515625 8.628906 -9.347656 5.265625 -14.296875 C 1.898438 -19.242188 -0.03125 -24.691406 -0.53125 -30.640625 C -1.039062 -36.585938 -0.00390625 -42.285156 2.578125 -47.734375 L 43.21875 -133.9375 C 46.226562 -140.394531 50.523438 -145.269531 56.109375 -148.5625 C 61.703125 -151.863281 67.6875 -153.546875 74.0625 -153.609375 C 80.445312 -153.679688 86.429688 -152.101562 92.015625 -148.875 C 97.609375 -145.65625 101.984375 -140.75 105.140625 -134.15625 L 146.203125 -47.734375 C 148.921875 -42.285156 149.992188 -36.585938 149.421875 -30.640625 C 148.847656 -24.691406 146.910156 -19.242188 143.609375 -14.296875 C 140.316406 -9.347656 135.804688 -5.515625 130.078125 -2.796875 C 124.484375 -0.210938 118.675781 0.820312 112.65625 0.3125 C 106.632812 -0.183594 101.1875 -2.117188 96.3125 -5.484375 C 91.445312 -8.847656 87.648438 -13.328125 84.921875 -18.921875 L 66.4375 -57.828125 C 66.289062 -58.265625 65.929688 -58.410156 65.359375 -58.265625 C 64.785156 -58.117188 64.570312 -57.6875 64.71875 -56.96875 L 70.515625 -32.890625 L 64.0625 -18.921875 C 61.34375 -13.328125 57.507812 -8.847656 52.5625 -5.484375 C 47.625 -2.117188 42.179688 -0.183594 36.234375 0.3125 C 30.285156 0.820312 24.441406 -0.210938 18.703125 -2.796875 Z M 18.703125 -2.796875 "/></g></g></g><g fill="#ff66c4" fill-opacity="0.502"><g transform="translate(394.440277, 167.100513)"><g><path d="M 88.796875 -143.1875 C 93.234375 -147.769531 98.28125 -150.8125 103.9375 -152.3125 C 109.601562 -153.820312 115.300781 -153.820312 121.03125 -152.3125 C 126.769531 -150.8125 131.789062 -147.769531 136.09375 -143.1875 C 140.394531 -138.882812 143.257812 -133.796875 144.6875 -127.921875 C 146.125 -122.046875 146.125 -116.203125 144.6875 -110.390625 C 143.257812 -104.585938 140.394531 -99.394531 136.09375 -94.8125 L 106.640625 -64.71875 L 106.640625 -34.609375 C 106.640625 -28.304688 105.097656 -22.570312 102.015625 -17.40625 C 98.929688 -12.25 94.773438 -8.128906 89.546875 -5.046875 C 84.316406 -1.972656 78.546875 -0.4375 72.234375 -0.4375 C 66.078125 -0.4375 60.378906 -1.972656 55.140625 -5.046875 C 49.910156 -8.128906 45.753906 -12.25 42.671875 -17.40625 C 39.597656 -22.570312 38.0625 -28.304688 38.0625 -34.609375 L 38.0625 -64.71875 L 8.59375 -94.8125 C 4.300781 -99.394531 1.4375 -104.585938 0 -110.390625 C -1.4375 -116.203125 -1.4375 -122.046875 0 -127.921875 C 1.4375 -133.796875 4.300781 -138.882812 8.59375 -143.1875 C 12.894531 -147.769531 17.875 -150.8125 23.53125 -152.3125 C 29.195312 -153.820312 34.828125 -153.820312 40.421875 -152.3125 C 46.015625 -150.8125 50.957031 -147.769531 55.25 -143.1875 L 72.234375 -125.984375 Z M 88.796875 -143.1875 "/></g></g></g><g fill="#ff66c4" fill-opacity="0.502"><g transform="translate(544.710461, 167.100513)"><g><path d="M 3.21875 -132.4375 C 3.21875 -138.03125 5.257812 -142.832031 9.34375 -146.84375 C 13.4375 -150.851562 18.421875 -152.859375 24.296875 -152.859375 C 29.742188 -152.859375 34.472656 -150.851562 38.484375 -146.84375 C 42.492188 -142.832031 44.5 -138.03125 44.5 -132.4375 L 44.5 -106.859375 C 44.5 -101.117188 42.492188 -96.242188 38.484375 -92.234375 C 34.472656 -88.222656 29.742188 -86.21875 24.296875 -86.21875 C 18.421875 -86.21875 13.4375 -88.222656 9.34375 -92.234375 C 5.257812 -96.242188 3.21875 -101.117188 3.21875 -106.859375 Z M 3.21875 -132.4375 "/></g></g></g><g fill="#ff66c4" fill-opacity="0.502"><g transform="translate(602.539809, 167.100513)"><g><path d="M 77.40625 -154.796875 C 88.15625 -154.796875 98.296875 -152.753906 107.828125 -148.671875 C 117.359375 -144.585938 125.707031 -138.960938 132.875 -131.796875 C 140.039062 -124.628906 145.664062 -116.316406 149.75 -106.859375 C 153.832031 -97.398438 155.875 -87.296875 155.875 -76.546875 C 155.875 -65.796875 153.832031 -55.6875 149.75 -46.21875 C 145.664062 -36.757812 140.039062 -28.484375 132.875 -21.390625 C 125.707031 -14.296875 117.359375 -8.738281 107.828125 -4.71875 C 98.296875 -0.707031 88.15625 1.296875 77.40625 1.296875 C 66.789062 1.296875 56.753906 -0.707031 47.296875 -4.71875 C 37.835938 -8.738281 29.523438 -14.296875 22.359375 -21.390625 C 15.191406 -28.484375 9.566406 -36.757812 5.484375 -46.21875 C 1.398438 -55.6875 -0.640625 -65.796875 -0.640625 -76.546875 C -0.640625 -87.296875 1.398438 -97.398438 5.484375 -106.859375 C 9.566406 -116.316406 15.191406 -124.628906 22.359375 -131.796875 C 29.523438 -138.960938 37.835938 -144.585938 47.296875 -148.671875 C 56.753906 -152.753906 66.789062 -154.796875 77.40625 -154.796875 Z M 77.40625 -84.703125 C 75.539062 -84.703125 73.78125 -83.945312 72.125 -82.4375 C 70.476562 -80.9375 69.65625 -78.972656 69.65625 -76.546875 C 69.65625 -74.242188 70.476562 -72.269531 72.125 -70.625 C 73.78125 -68.976562 75.539062 -68.15625 77.40625 -68.15625 C 79.695312 -68.15625 81.664062 -68.976562 83.3125 -70.625 C 84.957031 -72.269531 85.78125 -74.242188 85.78125 -76.546875 C 85.78125 -78.972656 84.957031 -80.9375 83.3125 -82.4375 C 81.664062 -83.945312 79.695312 -84.703125 77.40625 -84.703125 Z M 77.40625 -84.703125 "/></g></g></g><g clip-path="url(#bb362e7920)"><g fill="#ad0053" fill-opacity="1"><g transform="translate(2.235388, 160.481984)"><g><path d="M 136.53125 -118.890625 C 136.53125 -113.304688 135.238281 -108.253906 132.65625 -103.734375 C 130.070312 -99.222656 126.273438 -95.675781 121.265625 -93.09375 C 117.679688 -95.101562 113.84375 -96.679688 109.75 -97.828125 C 105.664062 -98.972656 101.476562 -99.6875 97.1875 -99.96875 C 96.320312 -99.96875 95.78125 -99.570312 95.5625 -98.78125 C 95.351562 -98 95.675781 -97.46875 96.53125 -97.1875 C 106.132812 -95.03125 113.984375 -91.15625 120.078125 -85.5625 C 126.171875 -79.976562 130.503906 -73.492188 133.078125 -66.109375 C 135.660156 -58.734375 136.554688 -51.207031 135.765625 -43.53125 C 134.984375 -35.863281 132.40625 -28.695312 128.03125 -22.03125 C 123.65625 -15.375 117.523438 -10 109.640625 -5.90625 C 101.765625 -1.820312 92.164062 0.21875 80.84375 0.21875 L 33.75 0.21875 C 27.59375 0.21875 21.929688 -1.570312 16.765625 -5.15625 C 11.609375 -8.738281 7.453125 -13.21875 4.296875 -18.59375 C 1.140625 -23.96875 -0.4375 -29.164062 -0.4375 -34.1875 C -0.4375 -40.0625 0.632812 -45.179688 2.78125 -49.546875 C 4.9375 -53.921875 8.378906 -57.832031 13.109375 -61.28125 C 17.265625 -58.550781 21.992188 -56.46875 27.296875 -55.03125 C 32.609375 -53.601562 37.769531 -52.890625 42.78125 -52.890625 C 43.644531 -52.890625 44.144531 -53.28125 44.28125 -54.0625 C 44.425781 -54.851562 44.070312 -55.394531 43.21875 -55.6875 C 40.207031 -55.96875 37.195312 -56.609375 34.1875 -57.609375 C 31.175781 -58.617188 28.238281 -59.84375 25.375 -61.28125 C 18.34375 -65 12.75 -69.796875 8.59375 -75.671875 C 4.4375 -81.554688 1.75 -87.972656 0.53125 -94.921875 C -0.683594 -101.867188 -0.472656 -108.78125 1.171875 -115.65625 C 2.828125 -122.539062 5.910156 -128.8125 10.421875 -134.46875 C 14.941406 -140.132812 20.925781 -144.648438 28.375 -148.015625 C 35.832031 -151.390625 44.722656 -153.003906 55.046875 -152.859375 L 101.6875 -152.859375 C 108.144531 -152.859375 113.988281 -151.351562 119.21875 -148.34375 C 124.445312 -145.332031 128.640625 -141.25 131.796875 -136.09375 C 134.953125 -130.9375 136.53125 -125.203125 136.53125 -118.890625 Z M 136.53125 -118.890625 "/></g></g></g></g><g fill="#ad0053" fill-opacity="1"><g transform="translate(145.19631, 160.481984)"><g><path d="M 101.046875 -152.65625 C 107.492188 -152.65625 113.332031 -151.078125 118.5625 -147.921875 C 123.800781 -144.765625 127.960938 -140.570312 131.046875 -135.34375 C 134.128906 -130.113281 135.671875 -124.34375 135.671875 -118.03125 C 135.671875 -111.875 134.164062 -106.25 131.15625 -101.15625 C 128.144531 -96.070312 124.09375 -91.953125 119 -88.796875 C 113.914062 -85.640625 108.144531 -84.0625 101.6875 -84.0625 L 101.90625 -33.96875 C 101.90625 -27.664062 100.328125 -21.859375 97.171875 -16.546875 C 94.023438 -11.242188 89.832031 -7.015625 84.59375 -3.859375 C 79.363281 -0.710938 73.597656 0.859375 67.296875 0.859375 C 61.128906 0.859375 55.460938 -0.710938 50.296875 -3.859375 C 45.140625 -7.015625 41.019531 -11.242188 37.9375 -16.546875 C 34.863281 -21.859375 33.328125 -27.664062 33.328125 -33.96875 L 33.328125 -84.0625 C 27.015625 -84.0625 21.28125 -85.640625 16.125 -88.796875 C 10.96875 -91.953125 6.882812 -96.070312 3.875 -101.15625 C 0.863281 -106.25 -0.640625 -111.875 -0.640625 -118.03125 C -0.640625 -124.34375 0.863281 -130.113281 3.875 -135.34375 C 6.882812 -140.570312 10.96875 -144.765625 16.125 -147.921875 C 21.28125 -151.078125 27.015625 -152.65625 33.328125 -152.65625 Z M 101.046875 -152.65625 "/></g></g></g><g fill="#ad0053" fill-opacity="1"><g transform="translate(258.273385, 160.481984)"><g><path d="M 18.703125 -2.796875 C 13.109375 -5.515625 8.628906 -9.347656 5.265625 -14.296875 C 1.898438 -19.242188 -0.03125 -24.691406 -0.53125 -30.640625 C -1.039062 -36.585938 -0.00390625 -42.285156 2.578125 -47.734375 L 43.21875 -133.9375 C 46.226562 -140.394531 50.523438 -145.269531 56.109375 -148.5625 C 61.703125 -151.863281 67.6875 -153.546875 74.0625 -153.609375 C 80.445312 -153.679688 86.429688 -152.101562 92.015625 -148.875 C 97.609375 -145.65625 101.984375 -140.75 105.140625 -134.15625 L 146.203125 -47.734375 C 148.921875 -42.285156 149.992188 -36.585938 149.421875 -30.640625 C 148.847656 -24.691406 146.910156 -19.242188 143.609375 -14.296875 C 140.316406 -9.347656 135.804688 -5.515625 130.078125 -2.796875 C 124.484375 -0.210938 118.675781 0.820312 112.65625 0.3125 C 106.632812 -0.183594 101.1875 -2.117188 96.3125 -5.484375 C 91.445312 -8.847656 87.648438 -13.328125 84.921875 -18.921875 L 66.4375 -57.828125 C 66.289062 -58.265625 65.929688 -58.410156 65.359375 -58.265625 C 64.785156 -58.117188 64.570312 -57.6875 64.71875 -56.96875 L 70.515625 -32.890625 L 64.0625 -18.921875 C 61.34375 -13.328125 57.507812 -8.847656 52.5625 -5.484375 C 47.625 -2.117188 42.179688 -0.183594 36.234375 0.3125 C 30.285156 0.820312 24.441406 -0.210938 18.703125 -2.796875 Z M 18.703125 -2.796875 "/></g></g></g><g fill="#ad0053" fill-opacity="1"><g transform="translate(385.968963, 160.481984)"><g><path d="M 88.796875 -143.1875 C 93.234375 -147.769531 98.28125 -150.8125 103.9375 -152.3125 C 109.601562 -153.820312 115.300781 -153.820312 121.03125 -152.3125 C 126.769531 -150.8125 131.789062 -147.769531 136.09375 -143.1875 C 140.394531 -138.882812 143.257812 -133.796875 144.6875 -127.921875 C 146.125 -122.046875 146.125 -116.203125 144.6875 -110.390625 C 143.257812 -104.585938 140.394531 -99.394531 136.09375 -94.8125 L 106.640625 -64.71875 L 106.640625 -34.609375 C 106.640625 -28.304688 105.097656 -22.570312 102.015625 -17.40625 C 98.929688 -12.25 94.773438 -8.128906 89.546875 -5.046875 C 84.316406 -1.972656 78.546875 -0.4375 72.234375 -0.4375 C 66.078125 -0.4375 60.378906 -1.972656 55.140625 -5.046875 C 49.910156 -8.128906 45.753906 -12.25 42.671875 -17.40625 C 39.597656 -22.570312 38.0625 -28.304688 38.0625 -34.609375 L 38.0625 -64.71875 L 8.59375 -94.8125 C 4.300781 -99.394531 1.4375 -104.585938 0 -110.390625 C -1.4375 -116.203125 -1.4375 -122.046875 0 -127.921875 C 1.4375 -133.796875 4.300781 -138.882812 8.59375 -143.1875 C 12.894531 -147.769531 17.875 -150.8125 23.53125 -152.3125 C 29.195312 -153.820312 34.828125 -153.820312 40.421875 -152.3125 C 46.015625 -150.8125 50.957031 -147.769531 55.25 -143.1875 L 72.234375 -125.984375 Z M 88.796875 -143.1875 "/></g></g></g><g fill="#ad0053" fill-opacity="1"><g transform="translate(536.239147, 160.481984)"><g><path d="M 3.21875 -132.4375 C 3.21875 -138.03125 5.257812 -142.832031 9.34375 -146.84375 C 13.4375 -150.851562 18.421875 -152.859375 24.296875 -152.859375 C 29.742188 -152.859375 34.472656 -150.851562 38.484375 -146.84375 C 42.492188 -142.832031 44.5 -138.03125 44.5 -132.4375 L 44.5 -106.859375 C 44.5 -101.117188 42.492188 -96.242188 38.484375 -92.234375 C 34.472656 -88.222656 29.742188 -86.21875 24.296875 -86.21875 C 18.421875 -86.21875 13.4375 -88.222656 9.34375 -92.234375 C 5.257812 -96.242188 3.21875 -101.117188 3.21875 -106.859375 Z M 3.21875 -132.4375 "/></g></g></g><g fill="#ad0053" fill-opacity="1"><g transform="translate(594.068495, 160.481984)"><g><path d="M 77.40625 -154.796875 C 88.15625 -154.796875 98.296875 -152.753906 107.828125 -148.671875 C 117.359375 -144.585938 125.707031 -138.960938 132.875 -131.796875 C 140.039062 -124.628906 145.664062 -116.316406 149.75 -106.859375 C 153.832031 -97.398438 155.875 -87.296875 155.875 -76.546875 C 155.875 -65.796875 153.832031 -55.6875 149.75 -46.21875 C 145.664062 -36.757812 140.039062 -28.484375 132.875 -21.390625 C 125.707031 -14.296875 117.359375 -8.738281 107.828125 -4.71875 C 98.296875 -0.707031 88.15625 1.296875 77.40625 1.296875 C 66.789062 1.296875 56.753906 -0.707031 47.296875 -4.71875 C 37.835938 -8.738281 29.523438 -14.296875 22.359375 -21.390625 C 15.191406 -28.484375 9.566406 -36.757812 5.484375 -46.21875 C 1.398438 -55.6875 -0.640625 -65.796875 -0.640625 -76.546875 C -0.640625 -87.296875 1.398438 -97.398438 5.484375 -106.859375 C 9.566406 -116.316406 15.191406 -124.628906 22.359375 -131.796875 C 29.523438 -138.960938 37.835938 -144.585938 47.296875 -148.671875 C 56.753906 -152.753906 66.789062 -154.796875 77.40625 -154.796875 Z M 77.40625 -84.703125 C 75.539062 -84.703125 73.78125 -83.945312 72.125 -82.4375 C 70.476562 -80.9375 69.65625 -78.972656 69.65625 -76.546875 C 69.65625 -74.242188 70.476562 -72.269531 72.125 -70.625 C 73.78125 -68.976562 75.539062 -68.15625 77.40625 -68.15625 C 79.695312 -68.15625 81.664062 -68.976562 83.3125 -70.625 C 84.957031 -72.269531 85.78125 -74.242188 85.78125 -76.546875 C 85.78125 -78.972656 84.957031 -80.9375 83.3125 -82.4375 C 81.664062 -83.945312 79.695312 -84.703125 77.40625 -84.703125 Z M 77.40625 -84.703125 "/></g></g></g></g></g></svg>